<svg preserveAspectRatio="none" width="100%" height="100%" overflow="visible" style="display: block;" viewBox="0 0 723.858 769.399" fill="none" xmlns="http://www.w3.org/2000/svg">
<path id="Subtract" d="M723.858 769.399H0V0H723.858V769.399ZM623.279 156.072C602.588 138.751 577.636 129.715 550.975 131.188C550.181 131.234 549.391 131.314 548.604 131.428C541.503 132.417 531.578 134.513 525.102 137.425C478.098 158.562 409.113 224.238 393.672 272.605C384.661 238.481 373.586 206.482 341.266 186.821C332.353 181.4 320.134 177.514 310.182 174.036C279.858 163.439 247.869 154.6 215.812 163.078C176.743 173.905 144.167 208.268 123.694 241.959C113.939 258.013 104.075 284.086 108.821 303.124C110.013 307.906 117.997 327.415 124.964 325.341C128.703 324.227 135.686 315.459 138.668 311.985L174.212 270.604C191.697 250.265 192.144 246.01 218.752 237.598C253.395 226.645 277.642 231.657 308.715 249.232C325.162 258.179 338.114 265.529 353.422 276.91C345.635 276.555 336.169 275.388 328.537 277.146C321.332 278.805 243.047 314.864 238.359 319.028C231.091 325.487 224.797 334.005 218.454 341.383L183.421 382.003L138.718 433.779C133.798 439.476 119.738 455.088 116.044 460.842C119.556 487.351 125.532 514.317 129.266 540.878C129.825 544.852 131.38 553.855 133.919 556.69C139.96 557.711 166.432 536.062 173.279 532.373C182.922 527.178 187.684 512.883 192.71 502.924C198.779 491.061 205.361 479.466 212.436 468.174C232.967 435.552 257.153 405.378 284.522 378.236C298.425 364.418 308.554 355.21 325.615 345.215C338.717 337.539 351.736 328.283 364.813 320.322C356.909 333.231 348.209 350.403 340.885 364.031C339.267 366.965 333.762 376.671 332.833 379.335C327.487 394.656 322.966 411.75 318.478 427.395L300.394 490.502L282.516 552.656C279.536 563.007 275.123 576.476 272.927 586.782C270.052 600.275 267.901 617.282 266.044 630.968C264.682 641.011 258.579 672.434 260.63 679.774C262.019 681.009 266.735 681.667 268.645 681.751C297.348 683.057 326.149 684.28 354.877 684.699C357.341 684.735 358.792 684.454 360.505 682.668C363.381 675.025 358.66 537.474 359.473 517.92C360.016 504.861 361.979 493.298 364.211 479.232L372.588 426.575L384.46 351.33C386.526 338.231 388.542 322.775 391.222 310.055C416.712 347.126 446.058 381.844 471.428 419.509C489.252 445.97 498.977 470.605 509.958 500.822C512.678 508.307 529.494 556.617 533.529 558.508C540.444 559.254 553.9 540.132 557.866 534.435C558.193 510.438 557.983 485.934 558.005 461.878C558.014 452.055 558.659 427.893 557.277 419.604C551.244 383.397 535.597 343.143 510.101 316.281C486.77 291.701 458.829 287.028 426.436 285.872C433.615 278.81 440.385 271.397 447.854 264.641C475.408 239.626 509.994 217.562 548.491 218.183C571.158 218.548 592.779 224.623 608.988 240.986C613.434 245.47 617.245 250.559 621.152 255.399C624.604 259.678 629.032 265.823 634.754 266.584C637.163 266.904 641.196 264.21 642.706 262.446C648.548 256.276 650.184 246.678 649.645 237.908C648.134 213.505 639.075 186.227 629.487 163.683C628.678 161.79 624.771 157.317 623.279 156.072Z" fill="var(--fill-0, #D0E7FF)"></path>
</svg>